<mxfile host="app.diagrams.net" modified="2024-06-25T09:45:06.288Z" agent="Mozilla/5.0 (X11; Linux x86_64) AppleWebKit/537.36 (KHTML, like Gecko) Chrome/126.0.0.0 Safari/537.36" version="24.6.2" etag="qtpe884BRLnviUn_bLVA" type="github">
  <diagram name="Page-1" id="yEN8pPxUJJVHUlzCNqM0">
    <mxGraphModel>
      <root>
        <mxCell id="0" />
        <mxCell id="1" parent="0" />
      </root>
    </mxGraphModel>
  </diagram>
</mxfile>
